<svg xmlns="http://www.w3.org/2000/svg" width="16" height="16" fill="none"><g stroke="#b22621" stroke-linecap="round" stroke-linejoin="round" stroke-width="1.33333" clip-path="url(#a)"><path d="m1.33203 4.66537 2.94-2.94001a1.334 1.334 0 0 1 .43402-.29128 1.334 1.334 0 0 1 .51265-.10205h5.56a1.333 1.333 0 0 1 .5126.10205c.1625.06751.31.16651.4341.29128l2.94 2.94001M2.66797 8v5.3333c0 .3537.14047.6928.39052.9428a1.3332 1.3332 0 0 0 .94281.3906h8c.3536 0 .6928-.1405.9428-.3906.2501-.25.3905-.5891.3905-.9428V8"/><path d="M10 14.668v-2.6667a1.3333 1.3333 0 0 0-1.33333-1.3333H7.33333A1.3333 1.3333 0 0 0 6 12.0013v2.6667M1.33203 4.66797H14.6654M14.6654 4.66797v2a1.3332 1.3332 0 0 1-.3906.94281 1.333 1.333 0 0 1-.9428.39052 1.8 1.8 0 0 1-1.06-.42.4666.4666 0 0 0-.5466 0 1.8 1.8 0 0 1-1.06.42 1.8 1.8 0 0 1-1.06004-.42.4667.4667 0 0 0-.54666 0 1.8 1.8 0 0 1-1.06.42 1.8 1.8 0 0 1-1.06-.42.4667.4667 0 0 0-.54667 0 1.8 1.8 0 0 1-1.06.42 1.8 1.8 0 0 1-1.06-.42.4667.4667 0 0 0-.54667 0 1.8 1.8 0 0 1-1.06.42 1.33334 1.33334 0 0 1-1.33333-1.33333v-2"/></g><defs><clipPath id="a"><path fill="#fff" d="M0 0h16v16H0z"/></clipPath></defs></svg>